<?xml version="1.0" encoding="UTF-8"?>
<svg width="121px" height="34px" viewBox="0 0 121 34" version="1.1" xmlns="http://www.w3.org/2000/svg" xmlns:xlink="http://www.w3.org/1999/xlink">
    <title>Ember_France</title>
    <defs>
        <path d="M7.83919547,4.57260267 C7.86468715,4.16321709 8.09768305,4.05742248 8.44048162,4.28819315 C8.5735938,4.37782195 8.69653906,4.482875 8.82112095,4.58451692 C9.08258421,4.79783642 9.36601792,4.97996134 9.68788752,5.07908199 C10.1327024,5.21602174 10.5802946,5.35874559 11.0373593,5.43799267 C11.6588801,5.54581418 12.1748138,5.32413987 12.5498489,4.80619123 C12.6078747,4.72605429 12.6681323,4.64725214 12.7222897,4.56454448 C12.9728421,4.18190418 13.3265515,3.95538507 13.7715152,3.8569071 C14.0818788,3.78823948 14.3915481,3.71428213 14.6974978,3.62845996 C14.8555065,3.58411521 15.0088533,3.51727675 15.1572407,3.44598898 C15.8406061,3.11777851 16.2634505,2.58845942 16.3903633,1.83538968 C16.4396604,1.54297141 16.482907,1.24936665 16.5409824,0.958678669 C16.5940487,0.692906797 16.6847574,0.437318891 16.8980147,0.254205235 C17.2465662,-0.0450847426 17.643175,-0.0664414109 18.0450409,0.118748588 C18.2254168,0.201901172 18.3825824,0.337901622 18.5444099,0.457785698 C18.8092952,0.654098962 19.0618314,0.867912829 19.3335608,1.05399269 C19.643974,1.2665212 19.9214068,1.50831626 20.1322834,1.81991598 C20.4361006,2.26885095 20.8177318,2.63690742 21.2471227,2.96808409 C21.5160252,3.17552062 21.7497154,3.43071303 21.9860342,3.67695739 C22.2026142,3.90263608 22.4241041,4.12791926 22.7231602,4.22708935 C23.3289099,4.42800023 23.8085402,4.80540024 24.2640179,5.23228643 C24.9116255,5.83917175 25.6569347,6.27055668 26.5400179,6.44526609 C27.0622005,6.54858886 27.5205547,6.78044713 27.9107659,7.14692163 C28.3603914,7.5692102 28.9123804,7.78920366 29.5029045,7.93301511 C29.7996792,8.00529161 30.0945197,8.08696109 30.3862853,8.17718313 C30.5069492,8.21445843 30.6239927,8.2747218 30.7307205,8.34304337 C30.9596497,8.48957384 31.040985,8.69686206 30.9809258,8.96159576 C30.9573187,9.0654129 30.9239415,9.16878511 30.8808933,9.26617547 C30.4437656,10.2558494 30.1468421,11.2855671 29.9811462,12.3537466 C29.9647304,12.459294 29.9366598,12.5631606 29.9107217,12.6670272 C29.8186244,13.0364679 29.6170715,13.3339287 29.2838943,13.5203052 C28.7845253,13.7996227 28.4121187,14.1956604 28.0886124,14.6618982 C27.8478798,15.0087463 27.5453521,15.3129799 27.270895,15.6366422 C26.8017292,16.1899381 26.3719911,16.7682985 26.1493605,17.4702506 C26.0949055,17.6419938 26.0529484,17.8208065 26.0326641,17.9995203 C25.9821271,18.4447969 26.221372,18.6809068 26.666286,18.6414068 C26.7690958,18.632261 26.8715089,18.6187154 26.9742691,18.6084325 C27.3090829,18.5748155 27.5498652,18.7069105 27.7018234,19.0078813 C27.815792,19.2337083 27.8630557,19.477728 27.8609728,19.7259498 C27.8567076,20.2416738 27.9292647,20.7421713 28.0901995,21.2330781 C28.2024819,21.5755757 28.1333965,21.8913282 27.8993591,22.1701019 C27.8092455,22.2773796 27.7224052,22.3878213 27.6404747,22.5013774 C27.416753,22.8115929 27.3710267,23.1502345 27.493476,23.5106778 C27.5318127,23.6236407 27.5726292,23.7368508 27.624902,23.8438813 C27.7972932,24.1968102 27.8329518,24.5649655 27.7894076,24.9518079 C27.7647591,25.170961 27.7587085,25.3974801 27.7848945,25.6158421 C27.8319599,26.0082215 28.0581117,26.3064733 28.3569198,26.5532614 C28.5032241,26.6740848 28.6574637,26.7859601 28.798015,26.9129631 C29.0470796,27.1378508 29.0845732,27.375246 28.8905588,27.6485322 C28.7703908,27.8177542 28.6246816,27.9779292 28.4622093,28.1067613 C27.9249499,28.5327576 27.4079252,28.9793691 26.917384,29.4587076 C26.3855304,29.9783866 25.736187,30.0580291 25.0503419,29.8677472 C24.7230665,29.7769319 24.3979236,29.6475065 24.1017937,29.4821901 C23.457013,29.1222907 22.7842113,28.8650219 22.0571034,28.721161 C21.6515179,28.6408758 21.2629434,28.4737796 20.8680704,28.341833 C20.660715,28.2725227 20.4592613,28.1841792 20.2497733,28.1227294 C19.8182002,27.9961713 19.3852385,28.0215324 19.0010779,28.25082 C18.4739359,28.5654353 17.9572583,28.9015557 17.4615096,29.2630865 C17.0127272,29.5903577 16.807306,30.0778533 16.710993,30.6139946 C16.6731523,30.8246445 16.6397751,31.0372225 16.5830387,31.243077 C16.4502241,31.7246403 16.1202706,32.0029196 15.6210503,32 C14.8628961,31.9954547 14.1244806,31.8632114 13.4347671,31.5290685 C13.1359591,31.3843178 12.9076747,31.1502843 12.6766625,30.9190193 C12.5167196,30.7588937 12.3518669,30.60124 12.1741194,30.4616306 C11.6401333,30.0423577 11.0332926,29.8463411 10.3542915,29.9473897 C9.51514918,30.0722669 8.72530398,29.9473403 7.9793005,29.5433928 C7.87058892,29.4845136 7.75255353,29.4428384 7.64359397,29.3843054 C7.08719103,29.0854603 6.52959781,28.7886422 5.97810475,28.4809974 C5.67136152,28.3098474 5.41902369,28.0740836 5.22575314,27.7775621 C4.96305001,27.3745044 4.86386061,26.9384725 5.02801907,26.4816276 C5.24931062,25.865992 5.49911913,25.2604415 5.7417364,24.652518 C5.94631454,24.1398096 6.15694324,23.6294742 6.36712558,23.1189905 C6.56689303,22.6338184 6.60126216,22.1198742 6.64064035,21.6059299 C6.68210152,21.0651415 6.83401009,20.558761 7.16961742,20.125102 C7.46678887,19.7411764 7.54921526,19.3208653 7.44486801,18.8556656 C7.33184169,18.3518064 7.31438435,17.8442395 7.37796476,17.3324705 C7.39061141,17.2306802 7.38862762,17.1269125 7.39110736,17.0239852 C7.40415076,16.4876956 7.21013629,16.0383157 6.79864906,15.6942855 C6.2696224,15.251975 5.89691822,14.7042655 5.63996808,14.0704371 C5.50948442,13.748604 5.46772569,13.4100612 5.43162074,13.0700354 C5.39125066,12.6900647 5.27410797,12.3373336 5.06090036,12.019752 C4.85409046,11.7118106 4.6450488,11.4050557 4.42767522,11.1044804 C4.23777712,10.8418724 4.01103015,10.6077401 3.72933225,10.4463291 C2.96676413,10.0093579 2.19849263,9.58217506 1.42709666,9.1609741 C1.22509745,9.05068075 1.00286359,8.97756383 0.790796656,8.88536432 C0.388038094,8.71025941 0.141155676,8.41062338 0.0822867663,7.97315774 C0.0449915516,7.69596598 0.00690282175,7.41694506 0.000356321299,7.13802302 C-0.0101577552,6.69047228 0.212076097,6.4487761 0.658230022,6.39597767 C0.801112354,6.3790703 0.947565504,6.37303902 1.09089419,6.38297581 C1.56288695,6.4158018 2.03334228,6.41456588 2.4991853,6.32745836 C3.03396495,6.22744785 3.47396914,6.3872768 3.84454074,6.77565177 C4.20504461,7.15344728 4.65516611,7.32385569 5.17486898,7.34728871 C5.63272725,7.36795326 6.08934566,7.41521478 6.54685677,7.44551949 C6.67823313,7.45422036 6.81154369,7.45362712 6.94267207,7.44225667 C7.42364148,7.40063094 7.75483489,7.13036032 7.82873099,6.65369135 C7.88750071,6.27436331 7.87867285,5.88465355 7.89984979,5.4995414 C7.87837529,5.49889872 7.85690078,5.49830548 7.83542628,5.49766281 C7.83542628,5.18922703 7.82010151,4.87985196 7.83919547,4.57260267 Z" id="path-1"></path>
    </defs>
    <g id="Page-1" stroke="none" stroke-width="1" fill="none" fill-rule="evenodd">
        <g id="Ember-France-logo" transform="translate(-871.000000, -310.000000)">
            <g id="Ember_France" transform="translate(871.000000, 310.794872)">
                <g id="ember-logo-copy" fill="#FFF" fill-rule="nonzero">
                    <path d="M58.0264162,24.1092443 C58.0264162,24.1092443 57.6378236,22.7218084 59.0837495,20.052834 C60.5296754,17.3838597 61.6593051,18.8430904 61.6593051,18.8430904 C61.6593051,18.8430904 62.8919569,20.1955263 61.4821791,22.2237315 C60.0724014,24.2519366 58.0273199,24.1083469 58.0273199,24.1083469 L58.0264162,24.1092443 Z M46.9217051,26.0297571 C45.2652162,30.406552 41.2464458,28.627834 41.2464458,28.627834 C41.2464458,28.627834 40.788268,27.0627058 42.0923125,22.6868084 C43.3963569,18.3091161 46.4635273,20.0169366 46.4635273,20.0169366 C46.4635273,20.0169366 48.578194,21.6538597 46.9217051,26.0297571 L46.9217051,26.0297571 Z M43.9259273,7.70680839 C43.9259273,7.70680839 46.4291865,1.12501352 47.0274384,4.3270648 C47.626594,7.53091096 41.7742088,17.0661674 41.7742088,17.0661674 C41.8446977,14.9302699 43.9250236,7.70770583 43.9250236,7.70770583 L43.9259273,7.70680839 Z M8.14197173,24.1092443 C8.24860877,19.8751417 10.9976754,18.0246289 11.9501791,18.9489879 C12.9026828,19.8751417 12.5502384,21.8674494 10.751868,23.1130904 C8.95349766,24.357834 8.14287543,24.1092443 8.14287543,24.1092443 L8.14197173,24.1092443 Z M83.9735569,23.406552 C83.8325791,21.9832186 82.5637791,22.5127058 82.5637791,22.5127058 C82.5637791,22.5127058 80.5196014,24.1119366 78.721231,23.9342443 C76.9228606,23.7547571 77.4867717,19.6983469 77.4867717,19.6983469 C77.4867717,19.6983469 77.8753643,15.9802699 76.818031,15.6688597 C75.7606977,15.356552 74.4548458,16.6380904 74.4548458,16.6380904 C74.4548458,16.6380904 72.8326977,18.450911 72.0573199,20.7645007 L71.8458532,20.8362956 C71.8458532,20.8362956 72.0925643,16.7798853 71.8097051,15.8555263 C71.5982384,15.391552 69.6588902,15.4274494 69.342594,16.245911 C69.0262977,17.0643725 67.4737347,22.7568084 67.3680014,25.1412956 C67.3680014,25.1412956 64.3360754,27.7384751 61.6927421,28.1656545 C59.0485051,28.5919366 58.4141051,26.9200135 58.4141051,26.9200135 C58.4141051,26.9200135 65.6057791,24.8918084 65.359068,19.0925776 C65.1123569,13.2924494 59.5600014,15.4364238 58.9310236,15.9138597 C58.322831,16.3742443 55.077631,18.3503981 54.1323569,23.8202699 C54.0989199,24.0087315 54.0419865,24.820911 54.0419865,24.820911 C54.0419865,24.820911 51.2585791,26.7055263 49.7060162,27.2045007 C49.7060162,27.2045007 54.0419865,19.8392443 48.7544162,16.4945007 C46.357794,15.0361674 44.454594,18.0955263 44.454594,18.0955263 C44.454594,18.0955263 51.6119273,10.0545007 50.0241199,3.25821865 C49.2686236,0.0229622379 47.6654532,-0.324345454 46.1942236,0.197962238 C43.9620754,1.08911608 43.1144014,2.40565455 43.1144014,2.40565455 C43.1144014,2.40565455 40.2225495,6.63975711 39.5538088,12.9379622 C38.8832606,19.2352699 37.8964162,26.8500135 37.8964162,26.8500135 C37.8964162,26.8500135 36.5209791,28.201552 35.2521791,28.2733469 C33.9833791,28.3451417 34.5472902,24.4655263 34.5472902,24.4655263 C34.5472902,24.4655263 35.5341347,18.5603981 35.4636458,17.5642443 C35.3931569,16.5680904 35.322668,16.0341161 34.1596014,15.677834 C32.9965347,15.3224494 31.7286384,16.8175776 31.7286384,16.8175776 C31.7286384,16.8175776 28.3786088,21.9401417 28.0957495,22.7227058 L27.920431,23.0430904 L27.7442088,22.8303981 C27.7442088,22.8303981 30.107394,15.8573212 27.8508458,15.7496289 C25.5942977,15.6419366 24.114031,18.2400135 24.114031,18.2400135 C24.114031,18.2400135 21.5402828,22.580911 21.4345495,23.0789879 L21.2583273,22.8653981 C21.2583273,22.8653981 22.3156606,17.812834 22.104194,16.5680904 C21.8918236,15.3224494 20.7287569,15.5719366 20.7287569,15.5719366 C20.7287569,15.5719366 19.2484902,15.3924494 18.8598977,16.3545007 C18.4713051,17.3147571 17.0615273,23.6838597 16.8862088,25.7120648 C16.8862088,25.7120648 13.1846384,28.3801417 10.751868,28.4151417 C8.31909766,28.4510392 8.56490506,26.8580904 8.56490506,26.8580904 C8.56490506,26.8580904 17.4844606,23.7762956 15.0534977,17.6916802 C13.9600162,16.126552 12.6912162,15.6347571 10.8928458,15.6706545 C9.09447543,15.706552 6.86232729,16.8130904 5.41820877,20.0860392 C4.72868284,21.6493725 4.47654951,23.1301417 4.33557173,24.2519366 C4.33557173,24.2519366 2.77397173,24.5732186 1.92810506,23.861552 C1.0822384,23.1498853 0.646653212,23.861552 0.646653212,23.861552 C0.646653212,23.861552 -0.804694936,25.7291161 0.64123099,26.2980904 C2.08534951,26.8670648 4.34189766,27.1327058 4.34189766,27.1327058 L4.34009025,27.1327058 C4.5479421,28.1288597 5.15071247,29.8214238 6.91022358,31.1711674 C9.55446062,33.1993725 14.6305643,30.9845007 14.6305643,30.9845007 L16.7090828,29.8061674 C16.7090828,29.8061674 16.7813791,31.7320648 18.2959865,32.0138597 C19.8124014,32.2947571 20.4468014,32.0093725 23.0910384,25.5343725 C24.641794,22.2246289 24.7475273,22.4023212 24.7475273,22.4023212 L24.9237495,22.3664238 C24.9237495,22.3664238 23.7254384,28.6996289 24.1827125,30.4074494 C24.641794,32.1152699 26.651631,31.9366802 26.651631,31.9366802 C26.651631,31.9366802 27.7451125,32.1502699 28.6253199,29.0200135 C29.5055273,25.8870648 31.199068,22.4355263 31.199068,22.4355263 L31.4105347,22.4355263 C31.4105347,22.4355263 30.6694977,28.9123212 31.7991273,30.9764238 C32.9260458,33.0405263 35.8522384,31.6701417 35.8522384,31.6701417 C35.8522384,31.6701417 37.8973199,30.6291161 38.2145199,30.3087315 C38.2145199,30.3087315 40.641868,32.3934751 44.064194,32.0156545 C51.7167569,30.4962956 54.4387125,28.4438597 54.4387125,28.4438597 C54.4387125,28.4438597 55.7526977,31.8047571 59.8247865,32.1161674 C64.4788606,32.471552 67.0164606,29.5180904 67.0164606,29.5180904 C67.0164606,29.5180904 66.9803125,31.4386033 68.6033643,32.1152699 C70.2246088,32.7910392 71.3171865,28.992193 71.3171865,28.992193 L74.0319125,21.4402699 L74.2795273,21.4402699 C74.2795273,21.4402699 74.4205051,26.3519366 77.0990828,27.1345007 C79.779468,27.9170648 83.2695717,25.3019366 83.2695717,25.3019366 C83.2695717,25.3019366 84.1154384,24.8307828 83.9744606,23.4083469 L83.9735569,23.406552 Z" id="Shape"></path>
                </g>
                <g id="Group-3" transform="translate(89.000000, 0.205128)">
                    <mask id="mask-2" fill="white">
                        <use xlink:href="#path-1"></use>
                    </mask>
                    <path stroke="#FFF" stroke-width="0.658318696" d="M17.3979484,-0.320445355 C17.6521794,-0.350468445 17.9167279,-0.302809512 18.1828021,-0.180195785 C19.1962236,0.545650904 19.3542779,0.669237953 19.5195155,0.782392398 C19.8645598,1.01863149 20.1706923,1.28937983 20.4048852,1.6354325 C20.6889102,2.05512165 21.0468772,2.39795277 21.4481729,2.70746038 C21.6975039,2.8997991 21.9190352,3.13010594 22.1375956,3.35916177 C22.3928571,3.62543722 22.5722992,3.8302768 22.8267826,3.91466612 C23.4786874,4.13088543 23.9982879,4.53210909 24.4890948,4.99210677 C25.0909989,5.55616245 25.7825878,5.95987662 26.603909,6.12236703 C27.1876729,6.2378747 27.6999176,6.49733398 28.1361085,6.90699132 C28.5436569,7.28976098 29.0466413,7.48312085 29.5807914,7.61320344 C29.884068,7.68706342 30.1853695,7.77051687 30.4835274,7.86271557 C30.8709657,8.06641121 31.0592045,8.22333935 31.1666066,8.36501753 C30.7657238,10.3263019 30.4705501,11.3460878 30.3064155,12.4042023 C30.1054155,13.2530866 29.8400283,13.5863681 29.4445785,13.8075793 C28.989746,14.0619858 28.6533616,14.4253773 28.359023,14.8495788 C28.1859933,15.0988804 27.9830689,15.3276499 27.7836071,15.551215 C27.0899773,16.3594852 26.6743706,16.9036826 26.4631253,17.5697367 C27.0062874,18.2752631 27.2660918,18.3011577 27.4569768,18.3687115 C28.1636579,19.1354196 28.1925985,19.433421 28.1901209,19.728672 C28.1861539,20.2083383 28.2532848,20.6739171 28.4029796,21.1305381 C28.5518223,21.5845565 28.4651992,22.0046169 28.1565156,22.3758133 C27.7992602,22.852232 27.7110156,23.1129669 27.8011921,23.3926807 C28.1347438,24.1504876 28.1647536,24.5599576 28.1165046,24.9885972 C28.0946799,25.1826424 28.0885191,25.3832444 28.1117112,25.5766409 C28.1484828,25.8832023 28.3356328,26.1087713 28.5665284,26.29947 C29.2278479,28.1576705 28.8624263,28.2094935 28.666716,28.3646817 C28.1383656,28.7836139 27.6298406,29.2227385 27.1474246,29.6941375 C26.5259888,30.301348 25.7685868,30.408611 24.9623295,30.1849217 C24.6100112,30.0871573 24.2601157,29.9475517 23.9413651,29.7696071 C23.3270021,29.4266861 22.6860673,29.1811439 21.9931868,29.044055 C21.6878578,28.9836155 21.3912857,28.8778064 21.102582,28.7733842 C19.9078289,28.3733082 19.5094957,28.3306996 19.1697702,28.533466 C18.6512907,28.8429113 18.1430616,29.1734465 17.6554543,29.5290401 C17.2764823,29.8054026 17.1156569,30.223017 17.0351496,30.6711648 C16.9833658,30.9647799 16.9501099,31.150053 16.900351,31.3305914 C16.8121081,31.6505453 16.6520916,31.8974153 16.4371199,32.0665618 C16.2226106,32.2353445 15.9499719,32.3310886 15.619077,32.3291534 C14.8114694,32.3243116 14.025625,32.1810725 13.2912647,31.8252997 C12.9689267,31.6691504 12.7163138,31.4246802 12.4668107,31.1747064 C12.2939998,31.0016876 12.1386872,30.8523526 11.9708439,30.7205224 C11.5109242,30.3594046 10.9888887,30.1857336 10.4027419,30.2729637 C9.49088963,30.4086613 8.63296296,30.2716563 7.82898516,29.8362258 C6.93239129,29.3759914 6.37201426,29.0776463 5.81772331,28.7684407 C5.46398296,28.5710683 5.17289099,28.2992671 4.94999553,27.9572942 C4.62749323,27.4624884 4.51800672,26.9275888 4.71826314,26.3702852 C4.89665702,25.8739914 5.09337096,25.3841741 5.28991848,24.8949736 C5.62749113,24.0506639 5.82389739,23.5737137 6.02029185,23.0967951 C6.24159736,22.5593211 6.27339006,22.0923151 6.30902386,21.6255179 C6.35920542,20.9708325 6.53481073,20.4075562 6.9093232,19.9236255 C7.14255171,19.6223098 7.20546743,19.2922903 7.12369032,18.9277126 C7.00345231,18.3917045 6.98340156,17.8517849 7.04940292,17.307356 C7.06864136,16.6182635 6.93074186,16.2337694 6.58751681,15.9468108 C6.0163075,15.4692321 5.6124633,14.8787223 5.33492674,14.1941127 C5.19279421,13.8435481 5.14366628,13.4755176 5.1043036,13.1048113 C5.06968117,12.7789386 4.97060572,12.4757936 4.78764554,12.2032668 C4.58295926,11.8984875 4.37609711,11.5948592 4.1609468,11.2973581 C3.99863146,11.0728941 3.80687598,10.8701266 3.5656797,10.7319228 C2.80882945,10.298228 2.04634374,9.87420532 1.28053741,9.45617788 C0.0394048009,8.91534849 -0.175626057,8.52465151 -0.243931651,8.01706013 C-0.284188393,7.71793089 -0.321999563,7.43175557 -0.328712233,7.14575365 C-0.33633291,6.82136574 -0.246326325,6.57889056 -0.0898805934,6.40242838 C0.0659984017,6.22660544 0.297430535,6.10721893 0.619546811,6.06909927 C1.53654966,6.08598629 1.9899591,6.08781364 2.43867737,6.00390826 C3.09119235,5.88187976 3.62967751,6.07365107 4.08267747,6.54841451 C4.38259929,6.86272213 4.75882039,6.99903561 5.18970985,7.01846409 C5.47314196,7.03125626 5.7561102,7.05403206 6.03909801,7.07687869 C6.20904695,7.09059929 6.37900381,7.10433114 6.54912619,7.11577459 C6.8875028,7.0970855 7.13015408,7.04665111 7.29418183,6.94532932 C7.54121108,6.35958311 7.54878764,6.11130012 7.55644112,5.86287735 C7.5051754,5.18507667 7.49107185,4.8675473 7.51066989,4.5521865 C8.93014957,4.48908041 9.3456611,4.61582225 9.64238287,4.71706009 L9.73810475,4.74956604 L9.78494267,4.76455667 C10.2763758,4.91620142 10.6808744,5.04211415 11.0936216,5.11367734 C11.3355567,5.15564827 11.5577803,5.13715748 11.7559483,5.05437817 C11.9586544,4.96970321 12.1339475,4.81933127 12.2773498,4.62155617 C12.7687767,3.8962692 13.1870185,3.64914178 13.7004086,3.5355199 C13.9970358,3.46989144 14.2930328,3.39939934 14.5856184,3.3178831 C15.5595429,2.8788223 15.9549852,2.43812429 16.0655189,1.78226737 C16.1421059,1.31393576 16.1764192,1.10332835 16.2181946,0.894228034 C16.286015,0.554563073 16.4134452,0.236429727 16.6835812,0.00447708656 C16.9086363,-0.188770528 17.1498777,-0.291149749 17.3979484,-0.320445355 Z"></path>
                    <rect id="Rectangle-Copy" fill="#FFF" mask="url(#mask-2)" x="11.4565217" y="-1.99999856" width="11.4565217" height="33.9999754"></rect>
                    <rect id="Rectangle" fill="#0037B6" mask="url(#mask-2)" x="-0.673913043" y="-0.666666185" width="14.1521739" height="33.9999754"></rect>
                    <rect id="Rectangle-Copy-2" fill="#FF253C" mask="url(#mask-2)" x="20.8913043" y="-2.66666474" width="11.4565217" height="33.9999754"></rect>
                </g>
            </g>
        </g>
    </g>
</svg>
